<?xml version="1.0" ?><svg height="32" id="svg4152" version="1.1" viewBox="0 0 32 32" width="32" xmlns="http://www.w3.org/2000/svg" xmlns:cc="http://creativecommons.org/ns#" xmlns:dc="http://purl.org/dc/elements/1.1/" xmlns:inkscape="http://www.inkscape.org/namespaces/inkscape" xmlns:rdf="http://www.w3.org/1999/02/22-rdf-syntax-ns#" xmlns:sodipodi="http://sodipodi.sourceforge.net/DTD/sodipodi-0.dtd" xmlns:svg="http://www.w3.org/2000/svg"><defs id="defs4154"/><g id="layer1"><g id="g5029" style="fill:none;stroke:#0e6ea1;stroke-width:5.66243649;stroke-linecap:round;stroke-linejoin:round;stroke-miterlimit:4;stroke-dasharray:none;stroke-opacity:1" transform="matrix(0.1696208,0,0,0.1696208,-91.224574,395.97397)"><path d="m 558.27164,-2303.3521 62.7424,0 c 2.60393,0 4.70023,2.0964 4.70023,4.7003 l 0,50.5995 c 0,2.6039 -2.0963,4.7002 -4.70023,4.7002 l -62.7424,0 c -2.60393,0 -4.70023,-2.0963 -4.70023,-4.7002 l 0,-50.5995 c 0,-2.6039 2.0963,-4.7003 4.70023,-4.7003 z" id="rect4998" style="opacity:1;fill:none;fill-opacity:1;stroke:#0e6ea1;stroke-width:5.66243649;stroke-linecap:round;stroke-linejoin:round;stroke-miterlimit:4;stroke-dasharray:none;stroke-opacity:1"/><path d="m 558.27164,-2236.9236 62.7424,0 c 2.60393,0 4.70023,2.0963 4.70023,4.7002 l 0,50.5996 c 0,2.6039 -2.0963,4.7002 -4.70023,4.7002 l -62.7424,0 c -2.60393,0 -4.70023,-2.0963 -4.70023,-4.7002 l 0,-50.5996 c 0,-2.6039 2.0963,-4.7002 4.70023,-4.7002 z" id="rect5000" style="opacity:1;fill:none;fill-opacity:1;stroke:#0e6ea1;stroke-width:5.66243649;stroke-linecap:round;stroke-linejoin:round;stroke-miterlimit:4;stroke-dasharray:none;stroke-opacity:1"/><path d="m 643.26649,-2303.3521 62.75271,0 c 2.60107,0 4.69507,2.0941 4.69507,4.6951 l 0,116.8599 c 0,2.601 -2.094,4.695 -4.69507,4.695 l -62.75271,0 c -2.60107,0 -4.69508,-2.094 -4.69508,-4.695 l 0,-116.8599 c 0,-2.601 2.09401,-4.6951 4.69508,-4.6951 z" id="rect5002" style="opacity:1;fill:none;fill-opacity:1;stroke:#0e6ea1;stroke-width:5.66243649;stroke-linecap:round;stroke-linejoin:round;stroke-miterlimit:4;stroke-dasharray:none;stroke-opacity:1"/><path d="m 569.99999,-2273.3521 39.28571,0" id="path5006" style="fill:none;fill-rule:evenodd;stroke:#0e6ea1;stroke-width:5.66243649;stroke-linecap:round;stroke-linejoin:round;stroke-miterlimit:4;stroke-dasharray:none;stroke-opacity:1"/><path d="m 569.99999,-2206.9236 39.28571,0" id="path5008" style="fill:none;fill-rule:evenodd;stroke:#0e6ea1;stroke-width:5.66243649;stroke-linecap:round;stroke-linejoin:round;stroke-miterlimit:4;stroke-dasharray:none;stroke-opacity:1"/><path d="m 589.64284,-2226.5665 0,39.2858" id="path5010" style="fill:none;fill-rule:evenodd;stroke:#0e6ea1;stroke-width:5.66243649;stroke-linecap:round;stroke-linejoin:round;stroke-miterlimit:4;stroke-dasharray:none;stroke-opacity:1"/><path d="m 654.99999,-2249.6958 39.28571,0" id="path5012" style="fill:none;fill-rule:evenodd;stroke:#0e6ea1;stroke-width:5.66243649;stroke-linecap:round;stroke-linejoin:round;stroke-miterlimit:4;stroke-dasharray:none;stroke-opacity:1"/><path d="m 654.99999,-2232.5529 39.28571,0" id="path5014" style="fill:none;fill-rule:evenodd;stroke:#0e6ea1;stroke-width:5.66243649;stroke-linecap:round;stroke-linejoin:round;stroke-miterlimit:4;stroke-dasharray:none;stroke-opacity:1"/></g></g></svg>